<?xml version="1.0" encoding="iso-8859-1"?>
<!-- Generator: Adobe Illustrator 17.1.0, SVG Export Plug-In . SVG Version: 6.00 Build 0)  -->
<!DOCTYPE svg PUBLIC "-//W3C//DTD SVG 1.1//EN" "http://www.w3.org/Graphics/SVG/1.1/DTD/svg11.dtd">
<svg xmlns="http://www.w3.org/2000/svg" xmlns:xlink="http://www.w3.org/1999/xlink" version="1.1" id="Capa_1" x="0px" y="0px" viewBox="0 0 475.667 475.667" style="enable-background:new 0 0 475.667 475.667;" xml:space="preserve" >
<g>
	<path d="M448.581,460.667h-50.975v-15.368c0-35.193-9.385-62.355-27.894-80.732c-23.593-23.424-53.202-23.495-54.407-23.474   h-37.571v-11.729c0-0.396-0.04-0.783-0.099-1.163c17.508-7.235,30.328-17.986,39.578-28.845c0.602-0.313,1.172-0.71,1.69-1.198   c0.236-0.223,23.913-22.615,47.263-49.025c32.752-37.043,48.673-63.148,48.673-79.809c0-29.091-26.102-41.108-44.773-44.433   c0.141-7.34-0.707-19.156-5.736-32.821c-12.806-34.792-43.09-56.123-67.852-68.293V7.5c0-4.142-3.358-7.5-7.5-7.5h-51.144H186.69   c-4.142,0-7.5,3.358-7.5,7.5v16.276c-42.938,21.059-60.604,48.602-67.852,68.295c-5.03,13.665-5.877,25.481-5.736,32.821   c-18.672,3.325-44.774,15.341-44.774,44.433c0,16.66,15.921,42.766,48.673,79.809c23.35,26.41,47.026,48.802,47.263,49.025   c0.518,0.489,1.088,0.886,1.69,1.199c9.25,10.859,22.07,21.61,39.578,28.844c-0.059,0.38-0.099,0.767-0.099,1.163v11.729h-37.518   c-1.255-0.015-30.872,0.053-54.46,23.474c-18.509,18.377-27.894,45.54-27.894,80.732v15.368H27.085c-4.142,0-7.5,3.358-7.5,7.5   c0,4.142,3.358,7.5,7.5,7.5h421.496c4.142,0,7.5-3.358,7.5-7.5C456.081,464.025,452.724,460.667,448.581,460.667z M315.359,356.093   c0.278-0.031,24.576,0.047,43.785,19.118c15.568,15.458,23.462,39.039,23.462,70.088v15.368H245.333v-71.374   c16.466-3.158,29.352-16.501,31.818-33.2H315.359z M344.051,238.098v-78.703c4.421,1.434,9.763,4.357,13.069,10.326   C366.026,185.797,356.066,214.079,344.051,238.098z M114.091,138.939c2.141-0.132,4.123-1.175,5.444-2.864   c1.321-1.69,1.856-3.864,1.47-5.974c-0.106-0.581-9.733-58.495,68.83-94.78c2.655-1.227,4.355-3.884,4.355-6.809V15h43.644h43.644   v13.512c0,2.925,1.7,5.583,4.355,6.809c32.912,15.201,54.485,35.769,64.121,61.132c7.153,18.831,4.728,33.538,4.709,33.648   c-0.386,2.105,0.154,4.273,1.468,5.962c1.314,1.688,3.295,2.734,5.43,2.875c1.563,0.103,38.278,2.848,38.278,30.387   c0,11.923-14.806,33.972-33.985,57.105c11.181-27.804,12.64-49.311,4.271-64.189c-10.693-19.008-32.644-19.227-33.573-19.227   H138.937c-18.376,0-30.936,6.036-37.333,17.94c-7.472,13.904-5.438,35.021,6.023,62.825   c-18.106-22.152-31.798-42.983-31.798-54.454C75.829,141.786,112.544,139.041,114.091,138.939z M114.819,168.051   c2.867-5.332,8.4-8.492,16.796-9.59v81.251C118.17,213.961,106.903,182.773,114.819,168.051z M162.423,279.645   c-11.735-18.011-15.267-35.842-15.808-38.914v-82.717h182.436v82.727c-0.529,3.06-3.936,20.472-15.509,38.442   c-16.802,26.09-42.04,40.432-75.011,42.63h-1.396C204.369,319.629,179.232,305.442,162.423,279.645z M236.405,336.798   c0.161,0.01,0.323,0.016,0.485,0.016h1.887c0.162,0,0.324-0.005,0.485-0.016c8.5-0.551,16.299-1.832,23.472-3.668v15.464   c0,0.046,0.006,0.091,0.007,0.138c-0.103,0.494-0.157,1.006-0.157,1.531c0,13.647-11.103,24.751-24.75,24.751   s-24.75-11.103-24.75-24.751c0-0.525-0.055-1.037-0.157-1.531c0.001-0.046,0.007-0.091,0.007-0.138v-15.464   C220.106,334.965,227.906,336.247,236.405,336.798z M93.061,445.299c0-88.177,64.527-89.206,67.301-89.206h38.153   c2.466,16.698,15.353,30.042,31.818,33.2v71.374H93.061V445.299z" fill="#b71c1c"/>
	<circle cx="184.596" cy="188" r="8.952" fill="#b71c1c"/>
	<circle cx="291.07" cy="188" r="8.951" fill="#b71c1c"/>
	<path d="M235.899,240.728h3.869c9.925,0,18-8.075,18-18v-34.723c0-4.142-3.358-7.5-7.5-7.5s-7.5,3.358-7.5,7.5v34.723   c0,1.654-1.346,3-3,3h-3.869c-1.654,0-3-1.346-3-3c0-4.142-3.358-7.5-7.5-7.5s-7.5,3.358-7.5,7.5   C217.899,232.653,225.974,240.728,235.899,240.728z" fill="#b71c1c"/>
	<path d="M231.755,110.566c1.4,1.58,3.401,2.497,5.513,2.526c0.034,0,0.067,0,0.101,0c2.075,0,4.059-0.86,5.478-2.377l17.691-18.92   c1.299-1.39,2.022-3.221,2.022-5.123V59.508c0-4.142-3.358-7.5-7.5-7.5h-34.452c-4.142,0-7.5,3.358-7.5,7.5v27.164   c0,1.833,0.671,3.602,1.886,4.973L231.755,110.566z M228.108,67.008h19.452v16.704l-10.041,10.739l-9.411-10.623V67.008z" fill="#b71c1c"/>
	<path d="M195.858,396.006H143.31c-4.142,0-7.5,3.358-7.5,7.5c0,4.142,3.358,7.5,7.5,7.5h52.548c4.142,0,7.5-3.358,7.5-7.5   C203.358,399.364,200,396.006,195.858,396.006z" fill="#b71c1c"/>
	<path d="M272.309,403.506c0,4.142,3.358,7.5,7.5,7.5h52.548c4.142,0,7.5-3.358,7.5-7.5c0-4.142-3.358-7.5-7.5-7.5h-52.548   C275.667,396.006,272.309,399.364,272.309,403.506z" fill="#b71c1c"/>
	<path d="M195.858,425.006H143.31c-4.142,0-7.5,3.358-7.5,7.5c0,4.142,3.358,7.5,7.5,7.5h52.548c4.142,0,7.5-3.358,7.5-7.5   C203.358,428.364,200,425.006,195.858,425.006z" fill="#b71c1c"/>
	<path d="M332.357,425.006h-52.548c-4.142,0-7.5,3.358-7.5,7.5c0,4.142,3.358,7.5,7.5,7.5h52.548c4.142,0,7.5-3.358,7.5-7.5   C339.857,428.364,336.499,425.006,332.357,425.006z" fill="#b71c1c"/>
	<path d="M284.328,273.738c2.601-3.225,2.095-7.946-1.129-10.546c-3.225-2.6-7.947-2.094-10.546,1.129   c-0.08,0.1-9.089,9.94-32.971,9.94c-24.809,0-36.903-10.295-37.494-10.812c-3.061-2.75-7.773-2.519-10.552,0.528   c-2.791,3.061-2.572,7.805,0.489,10.595c0.658,0.6,16.468,14.689,47.557,14.689C270.907,289.261,283.046,275.327,284.328,273.738z" fill="#b71c1c"/>
</g>
<g>
</g>
<g>
</g>
<g>
</g>
<g>
</g>
<g>
</g>
<g>
</g>
<g>
</g>
<g>
</g>
<g>
</g>
<g>
</g>
<g>
</g>
<g>
</g>
<g>
</g>
<g>
</g>
<g>
</g>
</svg>
